# xmcd
#
# Track frame offsets:
#	150
#	16832
#	33277
#	49635
#	65987
#	83365
#	102322
#	120797
#	137697
#	152942
#	168352
#	185035
#	201477
#	217834
#	234187
#	251565
#	270522
#	288995
#	305897
#	321144
#
# Disc length: 4485 seconds
#
# Revision: 1
# Processed by: cddbd v1.5.1PL0 Copyright (c) Steve Scherf et al.
# Submitted via: audiograbber 1.82.02
#
DISCID=13118314
DTITLE=Various Artist - Top Hits Monthly 0308 Country
DYEAR=1900
DGENRE=Karaoke
TTITLE0=Brad Paisley W - Vocals - Celebrity W - Vocals
TTITLE1=Vince Gill W - Vocals - Someday W - Vocals
TTITLE2=Jennifer Hanson W - Vocals - This far gone W - Vocals
TTITLE3=Wynonna Judd W - Vocals - What the world needs W - Vocals
TTITLE4=Dierks Bentley W - Vocals - What was I thinkin' W - Vocals
TTITLE5=Trace Adkins W - Vocals - Then they do W - Vocals
TTITLE6=Brooks and Dunn W - Vocals - Red dirt road W - Vocals
TTITLE7=Terri Clark W - Vocals - Three Mississippi W - Vocals
TTITLE8=Joe Nichols W - Vocals - She only smokes when she drinks W - Vocals
TTITLE9=Faith Hill W - Vocals - You're still here W - Vocals
TTITLE10=Brad Paisley - Celebrity
TTITLE11=Vince Gill - Someday
TTITLE12=Jennifer Hanson - This far gone
TTITLE13=Wynonna Judd - What the world needs
TTITLE14=Dierks Bentley - What was I thinkin'
TTITLE15=Trace Adkins - Then they do
TTITLE16=Brooks and Dunn - Red dirt road
TTITLE17=Terri Clark - Three Mississippi
TTITLE18=Joe Nichols - She only smokes when she drinks
TTITLE19=Faith Hill - You're still here
EXTD=
EXTT0=
EXTT1=
EXTT2=
EXTT3=
EXTT4=
EXTT5=
EXTT6=
EXTT7=
EXTT8=
EXTT9=
EXTT10=
EXTT11=
EXTT12=
EXTT13=
EXTT14=
EXTT15=
EXTT16=
EXTT17=
EXTT18=
EXTT19=
PLAYORDER=
